<svg width="3316" height="668" viewBox="0 0 3316 668" fill="none" xmlns="http://www.w3.org/2000/svg">
<g id="logo-nc">
<g id="NutritionClub">
<path id="Vector" d="M3158.13 128.24V236.899C3176 217.003 3197.13 207.029 3221.49 207.029C3248.45 207.029 3270.77 216.831 3288.42 236.428H3288.42C3306.09 255.902 3314.88 283.893 3314.88 320.321C3314.88 357.994 3305.88 387.088 3287.8 407.528L3287.8 407.527C3269.88 427.947 3248.05 438.176 3222.32 438.176C3209.66 438.176 3197.14 435.044 3184.78 428.792L3184.77 428.788C3172.94 422.606 3162.68 413.635 3153.99 401.887V433.199H3098.87V128.24H3158.13ZM3205.94 252.607C3192.13 252.607 3180.66 257.999 3171.49 268.811L3171.49 268.812C3162.34 279.465 3157.72 295.774 3157.72 317.834C3157.72 340.607 3161.31 357.352 3168.42 368.149L3168.42 368.151C3178.43 383.509 3191.69 391.146 3208.22 391.146C3220.91 391.146 3231.7 385.766 3240.6 374.949V374.948C3249.61 364.022 3254.17 346.815 3254.17 323.225C3254.17 298.105 3249.61 280.142 3240.6 269.22L3240.6 269.218C3231.57 258.136 3220.03 252.607 3205.94 252.607Z" fill="#00A880" stroke="#00A880"/>
<path id="Vector_2" d="M2899.79 212.005V313.687C2899.79 329.164 2900.05 341.646 2900.57 351.136C2901.08 360.643 2901.86 367.102 2902.88 370.564C2905.06 377.37 2908.93 382.805 2914.51 386.884L2915.03 387.248C2920.51 390.942 2927.42 392.805 2935.78 392.805C2945.33 392.805 2953.9 390.302 2961.51 385.298L2962.25 384.806C2970.05 379.329 2975.37 372.636 2978.23 364.729C2979.66 360.72 2980.74 353.783 2981.47 343.87C2982.19 333.969 2982.55 321.145 2982.55 305.393V212.005H3041.82V433.2H2986.7V401.324C2978.75 412.524 2968.42 421.403 2955.71 427.958C2942.64 434.768 2928.81 438.175 2914.22 438.175C2899.35 438.175 2886 434.91 2874.17 428.369C2862.33 421.822 2853.75 412.619 2848.45 400.766C2843.16 388.925 2840.53 372.604 2840.53 351.837V212.005H2899.79Z" fill="#00A880" stroke="#00A880"/>
<path id="Vector_3" d="M2782.85 128.24V433.199H2723.59V128.24H2782.85Z" fill="#00A880" stroke="#00A880"/>
<path id="Vector_4" d="M2549.09 123.057C2586.38 123.057 2616.71 134.08 2640.04 156.159L2640.69 156.776C2654.27 169.819 2664.46 188.363 2671.28 212.368L2671.42 212.87L2670.92 212.991L2610.17 227.505L2609.68 227.623L2609.56 227.13C2605.99 211.471 2598.51 199.134 2587.14 190.089L2587.14 190.087C2575.9 181.044 2562.19 176.514 2545.98 176.514C2523.59 176.514 2505.41 184.542 2491.42 200.598L2491.42 200.599C2477.57 216.635 2470.6 242.682 2470.6 278.854C2470.6 317.246 2477.51 344.465 2491.21 360.637C2504.94 376.831 2522.76 384.926 2544.74 384.926C2560.93 384.926 2574.84 379.784 2586.5 369.501C2598.14 359.228 2606.54 343.028 2611.64 320.831L2611.76 320.303L2612.28 320.467L2671.78 339.335L2672.24 339.48L2672.11 339.944C2663.11 372.674 2648.19 397.197 2627.32 413.461L2626.32 414.229C2605.06 430.343 2578.07 438.383 2545.36 438.383C2504.87 438.383 2471.56 424.58 2445.47 396.966L2445.47 396.965C2419.38 369.204 2406.36 331.334 2406.36 283.415C2406.36 232.74 2419.44 193.346 2445.68 165.305C2471.91 137.132 2506.4 123.057 2549.09 123.057Z" fill="#00A880" stroke="#00A880"/>
<path id="Vector_5" d="M2283.91 207.029C2296.82 207.029 2308.64 209.39 2319.35 214.119L2320.35 214.552C2330.55 219.075 2338.31 224.851 2343.6 231.897C2349.17 239.142 2353 247.362 2355.09 256.55C2357.32 265.731 2358.43 278.84 2358.43 295.855V433.199H2299.16V320.322C2299.16 308.441 2298.85 298.676 2298.23 291.023C2297.61 283.358 2296.68 277.851 2295.46 274.461L2295.46 274.458C2293 267.5 2288.99 262.13 2283.42 258.325L2283.41 258.322C2277.98 254.52 2271.38 252.607 2263.59 252.607C2253.59 252.607 2244.64 255.343 2236.71 260.812C2228.78 266.28 2223.32 273.518 2220.31 282.537C2217.44 291.578 2215.98 308.367 2215.98 332.969V433.199H2156.72V212.005H2211.84V243.398C2230.99 219.169 2255.02 207.029 2283.91 207.029Z" fill="#78BE43" stroke="#78BE43"/>
<path id="Vector_6" d="M1997.98 207.029C2031.42 207.029 2058.85 217.924 2080.24 239.731H2080.24C2101.63 261.397 2112.31 288.826 2112.31 321.98C2112.31 355.412 2101.49 383.187 2079.83 405.266C2058.3 427.208 2031.15 438.175 1998.4 438.175C1978.14 438.175 1958.78 433.595 1940.33 424.439L1940.33 424.438C1921.99 415.27 1908.03 401.86 1898.44 384.213L1898.44 384.211C1888.85 366.429 1884.07 344.849 1884.07 319.492C1884.07 300.054 1888.86 281.245 1898.44 263.07C1908.02 244.878 1921.56 230.983 1939.07 221.397L1939.07 221.396C1956.7 211.816 1976.35 207.029 1997.98 207.029ZM1998.19 255.509C1983.13 255.509 1970.48 261.252 1960.21 272.759C1949.95 284.247 1944.78 300.836 1944.78 322.602C1944.78 344.368 1949.95 360.957 1960.21 372.445C1970.48 383.952 1983.13 389.695 1998.19 389.695C2013.25 389.695 2025.83 383.953 2035.97 372.448L2035.97 372.445C2046.23 360.958 2051.39 344.232 2051.39 322.187C2051.39 300.699 2046.23 284.248 2035.97 272.759L2035.97 272.756C2025.83 261.251 2013.25 255.509 1998.19 255.509Z" fill="#78BE43" stroke="#78BE43"/>
<path id="Vector_7" d="M1838.63 212.005V433.199H1779.36V212.005H1838.63ZM1838.63 128.24V183.148H1779.36V128.24H1838.63Z" fill="#78BE43" stroke="#78BE43"/>
<path id="Vector_8" d="M1700.12 212.005H1739.93V259.449H1700.12V347.69C1700.12 356.673 1700.21 363.785 1700.38 369.029C1700.56 374.277 1700.81 377.609 1701.15 379.081C1701.94 381.86 1703.6 384.182 1706.13 386.053L1706.64 386.393C1709.2 388.035 1712.25 388.865 1715.8 388.865C1721.1 388.865 1728.84 387.026 1739.05 383.298L1739.65 383.079L1739.72 383.713L1744.7 428.912L1744.74 429.281L1744.4 429.427C1730.78 435.263 1715.37 438.176 1698.17 438.176C1687.61 438.176 1678.08 436.439 1669.58 432.955L1669.57 432.952C1661.08 429.335 1654.78 424.724 1650.7 419.101L1650.69 419.09C1646.77 413.344 1644.06 405.668 1642.53 396.091L1642.41 395.431C1641.24 388.401 1640.65 374.892 1640.65 354.947V259.449H1613.91V212.005H1640.65V168.469L1640.9 168.324L1699.37 134.32L1700.12 133.884V212.005Z" fill="#78BE43" stroke="#78BE43"/>
<path id="Vector_9" d="M1579.04 212.005V433.199H1519.78V212.005H1579.04ZM1579.04 128.24V183.148H1519.78V128.24H1579.04Z" fill="#78BE43" stroke="#78BE43"/>
<path id="Vector_10" d="M1456.62 207.029C1469.99 207.029 1482.86 210.72 1495.24 218.088L1495.59 218.298L1495.45 218.685L1477.41 269.483L1477.2 270.08L1476.67 269.736C1466.91 263.41 1457.88 260.278 1449.57 260.278C1441.52 260.278 1434.72 262.529 1429.15 267.01L1429.15 267.015L1429.15 267.014C1423.6 271.34 1419.15 279.304 1415.84 291.015L1415.84 291.014C1412.68 302.69 1411.09 327.225 1411.09 364.692V433.199H1351.83V212.005H1406.95V242.083C1415.85 228.096 1423.88 218.761 1431.06 214.158L1431.06 214.155C1438.61 209.402 1447.14 207.029 1456.62 207.029Z" fill="#78BE43" stroke="#78BE43"/>
<path id="Vector_11" d="M1275.08 212.005H1314.89V259.449H1275.08V347.69C1275.08 356.673 1275.17 363.785 1275.34 369.029C1275.51 374.277 1275.77 377.609 1276.1 379.081C1276.9 381.86 1278.55 384.182 1281.09 386.053L1281.59 386.393C1284.16 388.035 1287.2 388.865 1290.75 388.865C1296.05 388.865 1303.79 387.026 1314.01 383.298L1314.61 383.079L1314.68 383.713L1319.65 428.912L1319.69 429.281L1319.35 429.427C1305.74 435.263 1290.32 438.176 1273.13 438.176C1262.57 438.176 1253.03 436.439 1244.53 432.955L1244.53 432.952C1236.04 429.335 1229.73 424.724 1225.66 419.101L1225.65 419.09C1221.72 413.344 1219.01 405.668 1217.48 396.091L1217.37 395.431C1216.19 388.401 1215.61 374.892 1215.61 354.947V259.449H1188.86V212.005H1215.61V168.469L1215.86 168.324L1274.33 134.32L1275.08 133.884V212.005Z" fill="#78BE43" stroke="#78BE43"/>
<path id="Vector_12" d="M1011.34 212.005V313.687C1011.34 329.164 1011.6 341.646 1012.12 351.136C1012.64 360.643 1013.42 367.102 1014.43 370.564C1016.61 377.37 1020.49 382.805 1026.06 386.884L1026.59 387.248C1032.07 390.942 1038.97 392.805 1047.34 392.805C1056.88 392.805 1065.46 390.302 1073.07 385.298L1073.8 384.806C1081.6 379.329 1086.92 372.636 1089.78 364.729C1091.21 360.72 1092.3 353.783 1093.02 343.87C1093.75 333.969 1094.11 321.145 1094.11 305.393V212.005H1153.37V433.2H1098.26V401.324C1090.31 412.524 1079.97 421.403 1067.26 427.958C1054.2 434.768 1040.37 438.175 1025.77 438.175C1010.91 438.175 997.551 434.91 985.721 428.369C973.881 421.822 965.303 412.619 960.004 400.766C954.711 388.925 952.081 372.604 952.081 351.837V212.005H1011.34Z" fill="#78BE43" stroke="#78BE43"/>
<path id="Vector_13" d="M707.994 128.24L708.14 128.479L831.617 329.951V128.24H889.636V433.199H827.277L827.131 432.962L705.519 236.243V433.199H647.5V128.24H707.994Z" fill="#78BE43" stroke="#78BE43"/>
</g>
<g id="logo-images">
<g id="glasses">
<g id="glass-blue">
<path d="M478.015 17.5576L478.499 17.5723L478.5 18.0566L478.499 41.0566V41.5811L477.977 41.5557L413.995 38.5557C413.241 38.5557 412.639 38.5574 412.148 38.5947C411.652 38.6324 411.323 38.7043 411.099 38.8164C410.899 38.9166 410.764 39.0572 410.667 39.2979C410.563 39.5589 410.502 39.9472 410.5 40.5371L412.968 80.5166L497.958 73.5566L497.966 73.5557L499.113 73.4873C510.88 72.8666 520.278 74.8966 526.812 79.7305C533.579 84.737 537.187 92.6855 537.244 103.551V103.554L536.91 426.56C537.01 446.089 534.2 458.856 526.506 468.085C518.823 477.301 506.341 482.897 487.362 488.295C442.363 501.092 414.309 503.477 365.217 497.94C351.922 496.441 341.182 493.356 332.99 487.467C324.782 481.567 319.181 472.889 316.094 460.313L316.088 460.286L253.363 125.604C252.828 122.87 253.239 119.498 254.335 115.983C255.435 112.459 257.235 108.751 259.523 105.328C264.08 98.5108 270.661 92.703 277.624 91.8926L277.634 91.8916H277.643L389.476 83.0957L386.5 23.0811L386.499 23.0684V23.0566C386.499 20.1839 387.427 18.1203 389.551 16.8184C391.615 15.5539 394.737 15.0576 399 15.0576H399.016L478.015 17.5576ZM485 294.557C481.5 294.557 479.5 297.557 479.5 300.557C479.5 303.557 481.5 306.057 485 306.057C488.5 306.057 491 304.057 491 300.557C491 297.057 488.5 294.557 485 294.557ZM288 125.057L299.5 184.557H471.5C471.504 184.609 477.501 268.059 478 276.557C478.5 285.057 490.5 285.057 490.5 276.557V184.557H505V106.557L288 125.057Z" fill="#00A880"/>
<path d="M478.015 17.5576L477.999 18.0574L478 18.0574L478.015 17.5576ZM478.499 17.5723L478.999 17.5713L478.998 17.0871L478.515 17.0725L478.499 17.5723ZM478.5 18.0566L479 18.0567L479 18.0556L478.5 18.0566ZM478.499 41.0566L477.999 41.0566V41.0566H478.499ZM478.499 41.5811L478.475 42.0805L478.999 42.1059V41.5811H478.499ZM477.977 41.5557L478.001 41.0563L478 41.0562L477.977 41.5557ZM413.995 38.5557L414.019 38.0562L414.007 38.0557L413.995 38.0557L413.995 38.5557ZM412.148 38.5947L412.11 38.0962L412.11 38.0962L412.148 38.5947ZM411.099 38.8164L410.876 38.3691L410.875 38.3692L411.099 38.8164ZM410.667 39.2979L410.203 39.112L410.203 39.1122L410.667 39.2979ZM410.5 40.5371L410 40.5359L410 40.5519L410.001 40.5679L410.5 40.5371ZM412.968 80.5166L412.469 80.5474L412.501 81.0566L413.009 81.0149L412.968 80.5166ZM497.958 73.5566L497.999 74.055L498.01 74.0541L498.02 74.0528L497.958 73.5566ZM497.966 73.5557L497.936 73.0566L497.92 73.0575L497.904 73.0595L497.966 73.5557ZM499.113 73.4873L499.086 72.988L499.083 72.9882L499.113 73.4873ZM526.812 79.7305L527.109 79.3285L527.109 79.3285L526.812 79.7305ZM537.244 103.551L537.744 103.551L537.744 103.548L537.244 103.551ZM537.244 103.554L537.744 103.554V103.554H537.244ZM536.91 426.56L536.41 426.559L536.41 426.562L536.91 426.56ZM526.506 468.085L526.89 468.405L526.89 468.405L526.506 468.085ZM487.362 488.295L487.498 488.776L487.498 488.776L487.362 488.295ZM365.217 497.94L365.161 498.437L365.161 498.437L365.217 497.94ZM332.99 487.467L332.698 487.873L332.698 487.873L332.99 487.467ZM316.094 460.313L315.605 460.418L315.607 460.425L315.609 460.433L316.094 460.313ZM316.088 460.286L315.597 460.378L315.599 460.391L316.088 460.286ZM253.363 125.604L253.854 125.512L253.853 125.509L253.363 125.604ZM254.335 115.983L253.858 115.835L253.858 115.835L254.335 115.983ZM259.523 105.328L259.107 105.05L259.107 105.05L259.523 105.328ZM277.624 91.8926L277.575 91.395L277.567 91.3959L277.624 91.8926ZM277.634 91.8916V91.3916H277.609L277.584 91.3941L277.634 91.8916ZM277.643 91.8916V92.3916H277.663L277.682 92.3901L277.643 91.8916ZM389.476 83.0957L389.515 83.5942L389.999 83.5561L389.975 83.0709L389.476 83.0957ZM386.5 23.0811L387 23.0563L386.999 23.0427L386.5 23.0811ZM386.499 23.0684H385.999V23.0876L386.001 23.1067L386.499 23.0684ZM386.499 23.0566L385.999 23.0566V23.0566H386.499ZM389.551 16.8184L389.29 16.392L389.29 16.392L389.551 16.8184ZM399 15.0576L399 14.5576L399 14.5576L399 15.0576ZM399.016 15.0576L399.032 14.5579L399.024 14.5576H399.016V15.0576ZM485 294.557L485 294.057H485V294.557ZM485 306.057L485 306.557L485 306.557L485 306.057ZM288 125.057L287.958 124.558L287.404 124.606L287.509 125.152L288 125.057ZM299.5 184.557L299.009 184.652L299.088 185.057H299.5V184.557ZM471.5 184.557L471.999 184.521L471.966 184.057H471.5V184.557ZM478 276.557L477.501 276.586L477.501 276.586L478 276.557ZM490.5 184.557V184.057H490V184.557H490.5ZM505 184.557V185.057H505.5V184.557H505ZM505 106.557H505.5V106.012L504.958 106.058L505 106.557ZM478.015 17.5576L478 18.0574L478.484 18.072L478.499 17.5723L478.515 17.0725L478.03 17.0578L478.015 17.5576ZM478.499 17.5723L477.999 17.5733L478 18.0576L478.5 18.0566L479 18.0556L478.999 17.5713L478.499 17.5723ZM478.5 18.0566L478 18.0566L477.999 41.0566L478.499 41.0566L478.999 41.0567L479 18.0567L478.5 18.0566ZM478.499 41.0566H477.999V41.5811H478.499H478.999V41.0566H478.499ZM478.499 41.5811L478.524 41.0816L478.001 41.0563L477.977 41.5557L477.953 42.0551L478.475 42.0805L478.499 41.5811ZM477.977 41.5557L478 41.0562L414.019 38.0562L413.995 38.5557L413.972 39.0551L477.954 42.0551L477.977 41.5557ZM413.995 38.5557L413.995 38.0557C413.247 38.0557 412.624 38.0571 412.11 38.0962L412.148 38.5947L412.186 39.0933C412.654 39.0577 413.236 39.0557 413.995 39.0557L413.995 38.5557ZM412.148 38.5947L412.11 38.0962C411.596 38.1352 411.188 38.2128 410.876 38.3691L411.099 38.8164L411.322 39.2637C411.458 39.1959 411.708 39.1296 412.186 39.0933L412.148 38.5947ZM411.099 38.8164L410.875 38.3692C410.562 38.5257 410.344 38.7612 410.203 39.112L410.667 39.2979L411.132 39.4837C411.184 39.3533 411.235 39.3074 411.323 39.2636L411.099 38.8164ZM410.667 39.2979L410.203 39.1122C410.064 39.4602 410.002 39.923 410 40.5359L410.5 40.5371L411 40.5383C411.002 39.9714 411.062 39.6575 411.132 39.4835L410.667 39.2979ZM410.5 40.5371L410.001 40.5679L412.469 80.5474L412.968 80.5166L413.467 80.4858L410.999 40.5063L410.5 40.5371ZM412.968 80.5166L413.009 81.0149L497.999 74.055L497.958 73.5566L497.918 73.0583L412.927 80.0183L412.968 80.5166ZM497.958 73.5566L498.02 74.0528L498.028 74.0518L497.966 73.5557L497.904 73.0595L497.896 73.0605L497.958 73.5566ZM497.966 73.5557L497.996 74.0548L499.142 73.9864L499.113 73.4873L499.083 72.9882L497.936 73.0566L497.966 73.5557ZM499.113 73.4873L499.139 73.9866C510.847 73.369 520.111 75.3951 526.515 80.1324L526.812 79.7305L527.109 79.3285C520.444 74.3981 510.913 72.3642 499.086 72.988L499.113 73.4873ZM526.812 79.7305L526.515 80.1324C533.125 85.0228 536.688 92.8038 536.744 103.553L537.244 103.551L537.744 103.548C537.687 92.5672 534.034 84.4512 527.109 79.3285L526.812 79.7305ZM537.244 103.551H536.744V103.554H537.244H537.744V103.551H537.244ZM537.244 103.554L536.744 103.553L536.41 426.559L536.91 426.56L537.41 426.56L537.744 103.554L537.244 103.554ZM536.91 426.56L536.41 426.562C536.51 446.06 533.7 458.675 526.122 467.765L526.506 468.085L526.89 468.405C534.701 459.036 537.51 446.118 537.41 426.557L536.91 426.56ZM526.506 468.085L526.122 467.765C518.544 476.854 506.197 482.418 487.225 487.814L487.362 488.295L487.498 488.776C506.485 483.376 519.101 477.748 526.89 468.405L526.506 468.085ZM487.362 488.295L487.225 487.814C442.291 500.593 414.302 502.973 365.273 497.444L365.217 497.94L365.161 498.437C414.316 503.98 442.436 501.591 487.498 488.776L487.362 488.295ZM365.217 497.94L365.273 497.444C352.015 495.948 341.374 492.878 333.281 487.061L332.99 487.467L332.698 487.873C340.991 493.834 351.828 496.934 365.161 498.437L365.217 497.94ZM332.99 487.467L333.281 487.061C325.189 481.243 319.644 472.678 316.58 460.194L316.094 460.313L315.609 460.433C318.718 473.1 324.375 481.89 332.698 487.873L332.99 487.467ZM316.094 460.313L316.583 460.209L316.577 460.181L316.088 460.286L315.599 460.391L315.605 460.418L316.094 460.313ZM316.088 460.286L316.58 460.194L253.854 125.512L253.363 125.604L252.871 125.697L315.597 460.378L316.088 460.286ZM253.363 125.604L253.853 125.509C253.341 122.887 253.73 119.605 254.813 116.132L254.335 115.983L253.858 115.835C252.749 119.391 252.316 122.853 252.872 125.7L253.363 125.604ZM254.335 115.983L254.813 116.132C255.896 112.658 257.675 108.993 259.939 105.606L259.523 105.328L259.107 105.05C256.796 108.508 254.973 112.26 253.858 115.835L254.335 115.983ZM259.523 105.328L259.939 105.606C264.466 98.8328 270.937 93.1742 277.682 92.3892L277.624 91.8926L277.567 91.3959C270.385 92.2317 263.694 98.1887 259.107 105.05L259.523 105.328ZM277.624 91.8926L277.674 92.3901L277.684 92.3891L277.634 91.8916L277.584 91.3941L277.575 91.3951L277.624 91.8926ZM277.634 91.8916V92.3916H277.643V91.8916V91.3916H277.634V91.8916ZM277.643 91.8916L277.682 92.3901L389.515 83.5942L389.476 83.0957L389.437 82.5972L277.604 91.3931L277.643 91.8916ZM389.476 83.0957L389.975 83.0709L387 23.0563L386.5 23.0811L386.001 23.1058L388.977 83.1205L389.476 83.0957ZM386.5 23.0811L386.999 23.0427L386.998 23.03L386.499 23.0684L386.001 23.1067L386.002 23.1194L386.5 23.0811ZM386.499 23.0684H386.999V23.0566H386.499H385.999V23.0684H386.499ZM386.499 23.0566L386.999 23.0566C386.999 20.3066 387.875 18.4318 389.812 17.2447L389.551 16.8184L389.29 16.392C386.978 17.8088 385.999 20.0612 385.999 23.0566L386.499 23.0566ZM389.551 16.8184L389.812 17.2447C391.75 16.0575 394.751 15.5576 399 15.5576L399 15.0576L399 14.5576C394.724 14.5576 391.48 15.0503 389.29 16.392L389.551 16.8184ZM399 15.0576V15.5576H399.016V15.0576V14.5576H399V15.0576ZM399.016 15.0576L399 15.5574L477.999 18.0574L478.015 17.5576L478.031 17.0579L399.032 14.5579L399.016 15.0576ZM485 294.557V294.057C481.143 294.057 479 297.37 479 300.557H479.5H480C480 297.744 481.858 295.057 485 295.057V294.557ZM479.5 300.557H479C479 302.167 479.538 303.669 480.573 304.774C481.613 305.883 483.124 306.557 485 306.557V306.057V305.557C483.376 305.557 482.138 304.98 481.303 304.09C480.463 303.194 480 301.947 480 300.557H479.5ZM485 306.057L485 306.557C486.842 306.557 488.47 306.03 489.644 304.994C490.825 303.951 491.5 302.434 491.5 300.557H491H490.5C490.5 302.179 489.925 303.412 488.982 304.244C488.031 305.083 486.658 305.557 485 305.557L485 306.057ZM491 300.557H491.5C491.5 296.781 488.776 294.057 485 294.057L485 294.557L485 295.057C488.224 295.057 490.5 297.333 490.5 300.557H491ZM288 125.057L287.509 125.152L299.009 184.652L299.5 184.557L299.991 184.462L288.491 124.962L288 125.057ZM299.5 184.557V185.057H471.5V184.557V184.057H299.5V184.557ZM471.5 184.557L471.002 184.592C471.006 184.649 477.002 268.093 477.501 276.586L478 276.557L478.5 276.527C477.999 268.026 472.003 184.57 471.999 184.521L471.5 184.557ZM478 276.557L477.501 276.586C477.768 281.127 481.138 283.432 484.438 283.432C486.082 283.432 487.724 282.861 488.96 281.703C490.202 280.537 491 278.807 491 276.557H490.5H490C490 278.556 489.299 280.014 488.276 280.973C487.245 281.939 485.856 282.432 484.438 282.432C481.613 282.432 478.732 280.487 478.5 276.527L478 276.557ZM490.5 276.557H491V184.557H490.5H490V276.557H490.5ZM490.5 184.557V185.057H505V184.557V184.057H490.5V184.557ZM505 184.557H505.5V106.557H505H504.5V184.557H505ZM505 106.557L504.958 106.058L287.958 124.558L288 125.057L288.043 125.555L505.043 107.055L505 106.557Z" fill="#00A880"/>
</g>
<g id="glass-green">
<path d="M101.062 1.06055L184.562 11.5605L184.574 11.5625L184.587 11.5645C188.943 12.3331 192.814 14.5155 195.276 17.8203C197.746 21.1344 198.768 25.5386 197.485 30.6729L184.621 84.1113L276.046 92.5586L276.056 92.5596C283.024 93.334 289.634 99.1075 294.227 105.901C296.532 109.312 298.351 113.012 299.469 116.53C300.583 120.039 301.011 123.408 300.491 126.146L239.492 461.146L239.489 461.16L239.486 461.173C236.464 473.764 230.908 482.471 222.731 488.413C214.569 494.345 203.846 497.485 190.559 499.053C141.496 504.842 113.43 502.603 68.3652 490.038C49.3583 484.738 36.8483 479.207 29.1172 470.03C21.3754 460.841 18.5003 448.089 18.5 428.56L16.5 105.56V105.557C16.5 94.6878 20.1708 86.4024 27.0039 81.0381C33.8215 75.6861 43.7094 73.3033 56.0303 74.0576H56.0391V74.0586L152.118 81.5254L162.009 42.458C162.131 41.7241 162.186 41.1786 162.165 40.7607C162.145 40.3472 162.053 40.0993 161.918 39.9258C161.78 39.7486 161.55 39.5884 161.137 39.4414C160.722 39.2938 160.168 39.1746 159.427 39.0508L96.4375 31.0527L95.9268 30.9883L96.0059 30.4795L100.506 1.47949L100.58 1L101.062 1.06055ZM216.5 265.057C213 265.057 211 268.057 211 271.057C211 274.057 213 276.557 216.5 276.557C220 276.557 222.5 274.557 222.5 271.057C222.5 267.557 220 265.057 216.5 265.057ZM50.5 177.057L221.5 184.057C221.5 184.057 215.814 237.629 214.5 246.057C213.186 254.484 224.674 256.016 226 249.057C227.326 242.097 236.5 184.057 236.5 184.057H256L265.5 125.057L50.5 107.057V177.057Z" fill="#78BE43"/>
<path d="M101.062 1.06055L101.125 0.564454L101.125 0.564439L101.062 1.06055ZM184.562 11.5605L184.645 11.0673L184.635 11.0657L184.625 11.0645L184.562 11.5605ZM184.574 11.5625L184.492 12.0557L184.498 12.0567L184.574 11.5625ZM184.587 11.5645L184.674 11.0719L184.663 11.0703L184.587 11.5645ZM195.276 17.8203L195.677 17.5216L195.677 17.5216L195.276 17.8203ZM197.485 30.6729L197 30.5517L196.999 30.5558L197.485 30.6729ZM184.621 84.1113L184.135 83.9943L184 84.556L184.575 84.6092L184.621 84.1113ZM276.046 92.5586L276.096 92.0611L276.092 92.0607L276.046 92.5586ZM276.056 92.5596L276.111 92.0626L276.105 92.0621L276.056 92.5596ZM294.227 105.901L294.641 105.621L294.641 105.621L294.227 105.901ZM299.469 116.53L299.945 116.379L299.945 116.379L299.469 116.53ZM300.491 126.146L300 126.052L299.999 126.056L300.491 126.146ZM239.492 461.146L239.981 461.251L239.983 461.244L239.984 461.236L239.492 461.146ZM239.489 461.16L239.977 461.273L239.978 461.265L239.489 461.16ZM239.486 461.173L239.973 461.29L239.974 461.285L239.486 461.173ZM222.731 488.413L223.025 488.818L223.025 488.818L222.731 488.413ZM190.559 499.053L190.617 499.549L190.617 499.549L190.559 499.053ZM68.3652 490.038L68.2309 490.52L68.2309 490.52L68.3652 490.038ZM29.1172 470.03L28.7348 470.352L28.7348 470.352L29.1172 470.03ZM18.5 428.56L19 428.56L19 428.556L18.5 428.56ZM16.5 105.56L16 105.56L16 105.563L16.5 105.56ZM27.0039 81.0381L26.6952 80.6448L26.6952 80.6448L27.0039 81.0381ZM56.0303 74.0576L55.9997 74.5567L56.015 74.5576H56.0303V74.0576ZM56.0391 74.0576H56.5391V73.5576H56.0391V74.0576ZM56.0391 74.0586H55.5391V74.5212L56.0003 74.5571L56.0391 74.0586ZM152.118 81.5254L152.079 82.0239L152.499 82.0565L152.603 81.6481L152.118 81.5254ZM162.009 42.458L162.493 42.5807L162.499 42.5605L162.502 42.5399L162.009 42.458ZM162.165 40.7607L162.664 40.7362L162.664 40.7362L162.165 40.7607ZM161.918 39.9258L162.313 39.6188L162.313 39.6187L161.918 39.9258ZM161.137 39.4414L161.304 38.9704L161.304 38.9703L161.137 39.4414ZM159.427 39.0508L159.509 38.5576L159.499 38.556L159.49 38.5548L159.427 39.0508ZM96.4375 31.0527L96.5005 30.5567L96.5001 30.5567L96.4375 31.0527ZM95.9268 30.9883L95.4327 30.9115L95.3536 31.4199L95.8642 31.4843L95.9268 30.9883ZM96.0059 30.4795L96.4999 30.5563L96.4999 30.5562L96.0059 30.4795ZM100.506 1.47949L101 1.55616L101 1.55597L100.506 1.47949ZM100.58 1L100.642 0.503892L100.16 0.44339L100.086 0.923518L100.58 1ZM50.5 177.057H50V177.537L50.4795 177.556L50.5 177.057ZM221.5 184.057L221.997 184.109L222.054 183.579L221.52 183.557L221.5 184.057ZM236.5 184.057V183.557H236.073L236.006 183.979L236.5 184.057ZM256 184.057V184.557H256.426L256.494 184.136L256 184.057ZM265.5 125.057L265.994 125.136L266.079 124.603L265.542 124.558L265.5 125.057ZM50.5 107.057L50.5417 106.558L50 106.513V107.057H50.5ZM101.062 1.06055L101 1.55664L184.5 12.0566L184.562 11.5605L184.625 11.0645L101.125 0.564454L101.062 1.06055ZM184.562 11.5605L184.48 12.0537L184.492 12.0557L184.574 11.5625L184.656 11.0693L184.645 11.0673L184.562 11.5605ZM184.574 11.5625L184.498 12.0567L184.511 12.0586L184.587 11.5645L184.663 11.0703L184.65 11.0683L184.574 11.5625ZM184.587 11.5645L184.5 12.0568C188.75 12.8069 192.5 14.9316 194.875 18.1191L195.276 17.8203L195.677 17.5216C193.127 14.0993 189.135 11.8593 184.674 11.0721L184.587 11.5645ZM195.276 17.8203L194.875 18.119C197.25 21.3054 198.248 25.5537 197 30.5517L197.485 30.6729L197.97 30.794C199.287 25.5234 198.242 20.9633 195.677 17.5216L195.276 17.8203ZM197.485 30.6729L196.999 30.5558L184.135 83.9943L184.621 84.1113L185.107 84.2284L197.971 30.7899L197.485 30.6729ZM184.621 84.1113L184.575 84.6092L276 93.0565L276.046 92.5586L276.092 92.0607L184.667 83.6134L184.621 84.1113ZM276.046 92.5586L275.996 93.0561L276.006 93.0571L276.056 92.5596L276.105 92.0621L276.096 92.0611L276.046 92.5586ZM276.056 92.5596L276 93.0565C282.75 93.8067 289.25 99.4316 293.812 106.181L294.227 105.901L294.641 105.621C290.019 98.7834 283.297 92.8613 276.111 92.0626L276.056 92.5596ZM294.227 105.901L293.812 106.181C296.094 109.556 297.891 113.213 298.992 116.682L299.469 116.53L299.945 116.379C298.812 112.81 296.97 109.068 294.641 105.621L294.227 105.901ZM299.469 116.53L298.992 116.682C300.093 120.148 300.499 123.428 300 126.052L300.491 126.146L300.982 126.239C301.524 123.389 301.073 119.93 299.945 116.379L299.469 116.53ZM300.491 126.146L299.999 126.056L239 461.057L239.492 461.146L239.984 461.236L300.983 126.235L300.491 126.146ZM239.492 461.146L239.003 461.042L239 461.055L239.489 461.16L239.978 461.265L239.981 461.251L239.492 461.146ZM239.489 461.16L239.002 461.048L238.999 461.06L239.486 461.173L239.974 461.285L239.976 461.273L239.489 461.16ZM239.486 461.173L239 461.056C236 473.556 230.5 482.149 222.438 488.009L222.731 488.413L223.025 488.818C231.317 482.792 236.929 473.973 239.973 461.29L239.486 461.173ZM222.731 488.413L222.438 488.009C214.375 493.868 203.75 496.993 190.5 498.556L190.559 499.053L190.617 499.549C203.942 497.977 214.763 494.822 223.025 488.818L222.731 488.413ZM190.559 499.053L190.5 498.556C141.5 504.338 113.5 502.104 68.4995 489.556L68.3652 490.038L68.2309 490.52C113.36 503.103 141.491 505.346 190.617 499.549L190.559 499.053ZM68.3652 490.038L68.4995 489.556C49.4998 484.259 37.1245 478.759 29.4996 469.708L29.1172 470.03L28.7348 470.352C36.5721 479.655 49.2167 485.218 68.2309 490.52L68.3652 490.038ZM29.1172 470.03L29.4996 469.708C21.8752 460.658 19.0003 448.058 19 428.56L18.5 428.56L18 428.56C18.0003 448.121 20.8757 461.024 28.7348 470.352L29.1172 470.03ZM18.5 428.56L19 428.556L17 105.556L16.5 105.56L16 105.563L18 428.563L18.5 428.56ZM16.5 105.56H17V105.557H16.5H16V105.56H16.5ZM16.5 105.557H17C17 94.8066 20.6252 86.6813 27.3127 81.4314L27.0039 81.0381L26.6952 80.6448C19.7164 86.1234 16 94.569 16 105.557H16.5ZM27.0039 81.0381L27.3127 81.4314C34.0001 76.1815 43.75 73.8067 55.9997 74.5567L56.0303 74.0576L56.0608 73.5586C43.6688 72.7999 33.6429 75.1906 26.6952 80.6448L27.0039 81.0381ZM56.0303 74.0576V74.5576H56.0391V74.0576V73.5576H56.0303V74.0576ZM56.0391 74.0576H55.5391V74.0586H56.0391H56.5391V74.0576H56.0391ZM56.0391 74.0586L56.0003 74.5571L152.079 82.0239L152.118 81.5254L152.157 81.0269L56.0778 73.5601L56.0391 74.0586ZM152.118 81.5254L152.603 81.6481L162.493 42.5807L162.009 42.458L161.524 42.3353L151.633 81.4027L152.118 81.5254ZM162.009 42.458L162.502 42.5399C162.625 41.7988 162.688 41.2098 162.664 40.7362L162.165 40.7607L161.666 40.7853C161.683 41.1474 161.636 41.6493 161.516 42.3762L162.009 42.458ZM162.165 40.7607L162.664 40.7362C162.641 40.2592 162.531 39.8997 162.313 39.6188L161.918 39.9258L161.523 40.2328C161.575 40.2989 161.648 40.4353 161.666 40.7853L162.165 40.7607ZM161.918 39.9258L162.313 39.6187C162.094 39.3375 161.765 39.1343 161.304 38.9704L161.137 39.4414L160.969 39.9125C161.334 40.0425 161.466 40.1596 161.523 40.2328L161.918 39.9258ZM161.137 39.4414L161.304 38.9703C160.845 38.807 160.255 38.6821 159.509 38.5576L159.427 39.0508L159.344 39.544C160.082 39.6671 160.599 39.7807 160.969 39.9125L161.137 39.4414ZM159.427 39.0508L159.49 38.5548L96.5005 30.5567L96.4375 31.0527L96.3745 31.5488L159.364 39.5468L159.427 39.0508ZM96.4375 31.0527L96.5001 30.5567L95.9894 30.4922L95.9268 30.9883L95.8642 31.4843L96.3749 31.5488L96.4375 31.0527ZM95.9268 30.9883L96.4208 31.0651L96.4999 30.5563L96.0059 30.4795L95.5118 30.4027L95.4327 30.9115L95.9268 30.9883ZM96.0059 30.4795L96.4999 30.5562L101 1.55616L100.506 1.47949L100.012 1.40282L95.5118 30.4028L96.0059 30.4795ZM100.506 1.47949L101 1.55597L101.074 1.07648L100.58 1L100.086 0.923518L100.012 1.40301L100.506 1.47949ZM100.58 1L100.518 1.49611L101 1.55665L101.062 1.06055L101.125 0.564439L100.642 0.503892L100.58 1ZM216.5 265.057V264.557C212.642 264.557 210.5 267.87 210.5 271.057H211H211.5C211.5 268.244 213.358 265.557 216.5 265.557V265.057ZM211 271.057H210.5C210.5 272.667 211.037 274.169 212.073 275.274C213.113 276.383 214.624 277.057 216.5 277.057V276.557V276.057C214.876 276.057 213.637 275.48 212.802 274.59C211.963 273.694 211.5 272.447 211.5 271.057H211ZM216.5 276.557V277.057C218.342 277.057 219.969 276.53 221.143 275.494C222.325 274.451 223 272.934 223 271.057H222.5H222C222 272.68 221.425 273.912 220.482 274.744C219.531 275.583 218.158 276.057 216.5 276.057V276.557ZM222.5 271.057H223C223 267.28 220.276 264.557 216.5 264.557V265.057V265.557C219.724 265.557 222 267.833 222 271.057H222.5ZM50.5 177.057L50.4795 177.556L221.48 184.556L221.5 184.057L221.52 183.557L50.5205 176.557L50.5 177.057ZM221.5 184.057C221.003 184.004 221.003 184.004 221.003 184.004C221.003 184.005 221.003 184.005 221.003 184.006C221.002 184.008 221.002 184.01 221.002 184.014C221.001 184.02 221 184.03 220.999 184.043C220.996 184.068 220.992 184.107 220.986 184.158C220.976 184.259 220.96 184.41 220.939 184.607C220.897 185.002 220.835 185.581 220.756 186.322C220.598 187.803 220.371 189.929 220.094 192.506C219.54 197.659 218.789 204.619 217.996 211.842C216.409 226.296 214.661 241.78 214.006 245.98L214.5 246.057L214.994 246.134C215.653 241.905 217.405 226.39 218.99 211.951C219.783 204.727 220.535 197.767 221.088 192.612C221.365 190.035 221.592 187.91 221.75 186.428C221.829 185.687 221.891 185.108 221.933 184.713C221.954 184.516 221.97 184.365 221.981 184.263C221.986 184.213 221.99 184.174 221.993 184.148C221.994 184.135 221.995 184.126 221.996 184.119C221.997 184.116 221.997 184.113 221.997 184.112C221.997 184.111 221.997 184.11 221.997 184.11C221.997 184.11 221.997 184.109 221.5 184.057ZM214.5 246.057L214.006 245.98C213.659 248.206 214.154 250.021 215.156 251.359C216.152 252.69 217.621 253.513 219.163 253.818C222.233 254.423 225.763 252.973 226.491 249.15L226 249.057L225.509 248.963C224.911 252.1 222.034 253.364 219.357 252.836C218.026 252.574 216.786 251.869 215.956 250.76C215.132 249.659 214.684 248.121 214.994 246.134L214.5 246.057ZM226 249.057L226.491 249.15C227.156 245.661 229.783 229.4 232.241 214.026C233.471 206.335 234.659 198.863 235.54 193.313C235.98 190.537 236.344 188.243 236.597 186.642C236.724 185.842 236.823 185.215 236.891 184.788C236.924 184.575 236.95 184.411 236.968 184.301C236.976 184.246 236.983 184.205 236.987 184.177C236.989 184.163 236.991 184.152 236.992 184.145C236.993 184.142 236.993 184.139 236.993 184.137C236.994 184.136 236.994 184.136 236.994 184.135C236.994 184.135 236.994 184.135 236.5 184.057C236.006 183.979 236.006 183.979 236.006 183.979C236.006 183.98 236.006 183.98 236.006 183.981C236.005 183.983 236.005 183.986 236.004 183.989C236.003 183.996 236.002 184.007 235.999 184.021C235.995 184.049 235.988 184.09 235.98 184.145C235.962 184.255 235.937 184.419 235.903 184.632C235.835 185.059 235.736 185.686 235.609 186.486C235.356 188.087 234.992 190.381 234.552 193.156C233.671 198.706 232.483 206.178 231.254 213.868C228.793 229.254 226.17 245.493 225.509 248.963L226 249.057ZM236.5 184.057V184.557H256V184.057V183.557H236.5V184.057ZM256 184.057L256.494 184.136L265.994 125.136L265.5 125.057L265.006 124.977L255.506 183.977L256 184.057ZM265.5 125.057L265.542 124.558L50.5417 106.558L50.5 107.057L50.4583 107.555L265.458 125.555L265.5 125.057ZM50.5 107.057H50V177.057H50.5H51V107.057H50.5Z" fill="#78BE43"/>
</g>
<path id="smile" d="M125 269.556C119.159 260.056 131 252.283 138.5 260.056C167.565 290.179 186.411 303.124 226 317.056C262 328.057 286 327.557 321 317.056C361.868 302.869 380.427 290.063 408 261.056C415.5 253.166 426.504 259.557 421 270.056C398.463 313.048 371 334.057 321 350.556C286.5 360.557 262 360.557 226 350.556C171 332.557 151.279 312.293 125 269.556Z" fill="white" stroke="white"/>
</g>
<g id="herbalife">
<g id="logo-herbalife">
<path id="leaft3" d="M503.817 582.48C504.196 582.372 504.054 582.043 503.919 581.871C503.853 581.788 502.014 578.399 501.045 576.697C500.639 575.985 499.252 573.011 498.339 571.152C497.291 569.016 495.067 564.024 493.571 561.345C491.137 556.983 490.224 555.089 488.229 552.35C485.445 548.529 483.765 546.823 482.007 545.385C479.031 542.95 476.63 541.788 475.717 541.327C472.809 539.859 469.901 539.284 468.751 539.095C466.08 538.655 462.63 538.782 460.635 538.96C456.983 539.284 454.177 540.069 453.23 540.447C452.824 540.61 453.049 540.942 453.196 541.124C454.177 542.341 457.288 548.225 458.437 551.099L463.07 560.906C465.694 566.127 468.604 570.227 469.732 571.625C471.45 573.755 472.099 575.311 477.543 579.369C479.234 580.629 482.345 582.209 484.035 582.716C487.755 583.832 490.156 584.137 491.948 584.137C494.281 584.137 496.716 583.928 497.731 583.765C500.875 583.257 503.344 582.615 503.817 582.48Z" fill="#006429" stroke="#006429"/>
<path id="leaf2" d="M508.765 576.01C508.968 576.347 509.248 576.125 509.379 575.949C509.442 575.864 512.234 573.205 513.624 571.825C514.206 571.247 516.715 569.133 518.272 567.767C520.06 566.198 524.299 562.748 526.495 560.606C530.071 557.117 531.661 555.742 533.785 553.101C536.747 549.418 537.956 547.35 538.886 545.278C540.46 541.77 540.956 539.149 541.163 538.147C541.821 534.957 541.618 532 541.5 530.84C541.228 528.147 540.205 524.85 539.514 522.97C538.248 519.529 536.758 517.025 536.146 516.209C535.883 515.86 535.621 516.164 535.484 516.353C534.564 517.617 529.696 522.156 527.221 524.015L518.963 531.046C514.607 534.941 511.407 538.82 510.352 540.273C508.744 542.487 507.411 543.52 504.914 549.834C504.139 551.795 503.425 555.21 503.376 556.975C503.269 560.857 503.602 563.254 504.069 564.984C504.678 567.237 505.514 569.533 505.937 570.469C507.247 573.373 508.511 575.588 508.765 576.01Z" fill="#006429"/>
<path id="leaf1" d="M508.596 622.069C508.8 622.406 509.08 622.184 509.211 622.008C509.274 621.923 512.065 619.264 513.455 617.884C514.037 617.306 516.546 615.192 518.103 613.826C519.891 612.257 524.13 608.807 526.326 606.665C529.902 603.176 531.492 601.801 533.616 599.16C536.579 595.477 537.787 593.409 538.718 591.337C540.292 587.829 540.787 585.208 540.994 584.206C541.653 581.016 541.449 578.059 541.332 576.899C541.059 574.206 540.037 570.909 539.345 569.029C538.079 565.589 536.59 563.084 535.977 562.268C535.714 561.919 535.453 562.223 535.315 562.412C534.396 563.677 529.527 568.215 527.052 570.074L518.794 577.105C514.438 581 511.239 584.879 510.184 586.332C508.575 588.546 507.243 589.579 504.746 595.893C503.97 597.854 503.256 601.269 503.208 603.034C503.101 606.916 503.433 609.313 503.901 611.043C504.509 613.296 505.346 615.592 505.768 616.528C507.078 619.432 508.342 621.647 508.596 622.069Z" fill="#006429"/>
</g>
<g id="Herbalife">
<path id="Vector_14" d="M462.54 596.182C472.537 596.182 480.474 599.499 486.291 606.164L486.828 606.796C492.285 613.434 494.846 623.347 494.603 636.441L494.594 636.932H450.619C450.82 641.805 452.203 645.568 454.716 648.276H454.717C457.328 651.048 460.57 652.432 464.478 652.432C467.131 652.432 469.329 651.71 471.103 650.291C472.868 648.879 474.243 646.57 475.185 643.294L475.308 642.864L475.748 642.938L493.248 645.876L493.833 645.975L493.637 646.534C491.428 652.832 487.961 657.711 483.225 661.141L482.762 661.468C477.827 664.871 471.658 666.557 464.29 666.557C452.631 666.557 443.92 662.74 438.262 655.04L438.26 655.037C433.81 648.892 431.603 641.158 431.603 631.869C431.603 620.782 434.502 612.043 440.36 605.717C446.209 599.361 453.615 596.182 462.54 596.182ZM463.603 610.619C459.908 610.619 456.877 611.958 454.475 614.641C452.164 617.221 450.965 620.717 450.919 625.182H476.145C475.948 620.431 474.668 616.882 472.365 614.464L472.362 614.461C469.955 611.893 467.044 610.619 463.603 610.619Z" fill="#006429" stroke="#006429"/>
<path id="Vector_15" d="M422.223 570.869C427.273 570.869 432.22 571.627 437.059 573.142L437.486 573.275L437.401 573.714L435.026 585.964L434.927 586.477L434.419 586.355C431.661 585.697 429.013 585.369 426.473 585.369C423.996 585.369 422.328 585.96 421.339 587.022L421.338 587.021C420.876 587.519 420.5 588.288 420.24 589.376C419.981 590.461 419.848 591.83 419.848 593.494V597.682H432.973V612.494H419.848V665.057H401.285V612.494H391.535V597.682H401.285V593.182C401.285 587.579 401.868 583.331 403.075 580.486L403.077 580.48C404.26 577.789 406.335 575.595 409.264 573.889L409.86 573.554C413.162 571.753 417.292 570.869 422.223 570.869Z" fill="#006429" stroke="#006429"/>
<path id="Vector_16" d="M387.28 597.682V665.057H368.718V597.682H387.28ZM387.28 572.432V589.682H368.718V572.432H387.28Z" fill="#006429" stroke="#006429"/>
<path id="Vector_17" d="M356.775 572.432V665.057H338.213V572.432H356.775Z" fill="#006429" stroke="#006429"/>
<path id="Vector_18" d="M298.52 596.182C306.373 596.182 312.298 597.118 316.236 599.043L316.954 599.399C320.476 601.211 323.014 603.51 324.519 606.312L324.672 606.6C325.427 608.067 325.983 610.052 326.358 612.528C326.759 615.176 326.958 618.417 326.958 622.244V622.249L326.77 642.749C326.77 648.574 327.042 652.844 327.574 655.586C328.147 658.285 329.193 661.202 330.719 664.338L331.07 665.057H312.554L312.429 664.739C311.962 663.551 311.395 661.804 310.727 659.509L310.726 659.504C310.579 658.98 310.455 658.551 310.353 658.215C307.48 660.896 304.414 662.937 301.154 664.329C297.672 665.815 293.96 666.557 290.02 666.557C283.094 666.557 277.564 664.675 273.491 660.859L273.489 660.857C269.467 657.049 267.458 652.228 267.458 646.432C267.458 642.598 268.375 639.173 270.219 636.17C272.063 633.128 274.636 630.813 277.928 629.231C281.236 627.62 285.952 626.235 292.051 625.065H292.052C300 623.573 305.539 622.182 308.708 620.906V619.494C308.708 616.186 307.889 613.967 306.383 612.688L306.378 612.683C305.629 612.027 304.512 611.507 302.985 611.153C301.461 610.8 299.559 610.619 297.27 610.619C294.204 610.619 291.883 611.234 290.249 612.401L290.242 612.405C288.614 613.529 287.245 615.564 286.179 618.598L286.038 618.999L285.619 618.924L269.681 616.049L269.141 615.951L269.289 615.422C271.103 608.922 274.242 604.062 278.732 600.897C283.229 597.728 289.85 596.182 298.52 596.182ZM308.708 633.365C306.421 634.079 303.057 634.911 298.625 635.858C296.196 636.377 294.198 636.889 292.625 637.393C291.05 637.897 289.934 638.383 289.242 638.843C287.067 640.387 286.02 642.305 286.02 644.619C286.02 646.937 286.878 648.935 288.62 650.637C290.349 652.327 292.552 653.182 295.27 653.182C298.317 653.182 301.235 652.182 304.034 650.155C306.081 648.629 307.407 646.78 308.04 644.604L308.042 644.598C308.475 643.179 308.708 640.397 308.708 636.182V633.365Z" fill="#006429" stroke="#006429"/>
<path id="Vector_19" d="M216.765 572.432V604.643C222.081 599.018 228.336 596.182 235.515 596.182C243.736 596.182 250.559 599.176 255.948 605.158L256.447 605.724C261.515 611.649 264.015 619.993 264.015 630.682C264.015 642.089 261.288 650.952 255.765 657.198C250.301 663.424 243.626 666.557 235.765 666.557C231.888 666.557 228.061 665.597 224.289 663.69L224.284 663.688C220.949 661.944 218.028 659.477 215.515 656.297V665.057H198.203V572.432H216.765ZM230.828 610.619C226.77 610.619 223.408 612.197 220.708 615.38L220.706 615.383C218.026 618.504 216.64 623.321 216.64 629.932C216.64 636.559 217.655 641.425 219.615 644.604L219.808 644.906L219.809 644.908C222.77 649.451 226.662 651.682 231.515 651.682C235.224 651.682 238.38 650.116 241.004 646.927V646.926C243.646 643.724 245.015 638.635 245.015 631.557C245.015 624.011 243.642 618.698 241.004 615.5L241.002 615.497C238.346 612.237 234.966 610.619 230.828 610.619Z" fill="#006429" stroke="#006429"/>
<path id="Vector_20" d="M185.385 596.182C189.482 596.182 193.424 597.314 197.203 599.564L197.556 599.774L197.418 600.161L191.981 615.474L191.77 616.07L191.239 615.727C188.331 613.843 185.675 612.932 183.26 612.932C180.901 612.932 178.932 613.589 177.323 614.884L177.318 614.889C175.734 616.125 174.418 618.439 173.429 621.942C172.492 625.411 172.01 632.758 172.01 644.057V665.057H153.448V597.682H170.76V605.92C173.199 602.233 175.44 599.701 177.49 598.386L177.493 598.384C179.828 596.914 182.464 596.182 185.385 596.182Z" fill="#006429" stroke="#006429"/>
<path id="Vector_21" d="M113.88 596.182C123.877 596.182 131.814 599.499 137.631 606.164L138.168 606.796C143.625 613.434 146.186 623.347 145.943 636.441L145.934 636.932H101.959C102.16 641.805 103.542 645.568 106.056 648.276H106.057C108.668 651.048 111.91 652.432 115.818 652.432C118.471 652.432 120.669 651.71 122.443 650.291C124.208 648.879 125.583 646.57 126.525 643.294L126.648 642.864L127.088 642.938L144.588 645.876L145.173 645.975L144.977 646.534C142.768 652.832 139.301 657.711 134.565 661.141L134.102 661.468C129.167 664.871 122.998 666.557 115.63 666.557C103.971 666.557 95.2597 662.74 89.6017 655.04L89.5997 655.037C85.1499 648.892 82.9425 641.158 82.9425 631.869C82.9425 620.782 85.8416 612.043 91.7003 605.717C97.5485 599.361 104.955 596.182 113.88 596.182ZM114.943 610.619C111.248 610.619 108.217 611.958 105.815 614.641C103.504 617.221 102.305 620.717 102.259 625.182H127.484C127.288 620.431 126.008 616.882 123.705 614.464L123.702 614.461C121.295 611.893 118.384 610.619 114.943 610.619Z" fill="#006429" stroke="#006429"/>
<path id="Vector_22" d="M20.375 572.432V608.494H55.625V572.432H75.125V665.057H55.625V624.994H20.375V665.057H0.875V572.432H20.375Z" fill="#006429" stroke="#006429"/>
</g>
</g>
</g>
</g>
</svg>
